<mxfile host="Electron" modified="2025-06-03T13:12:23.181Z" agent="Mozilla/5.0 (Windows NT 10.0; Win64; x64) AppleWebKit/537.36 (KHTML, like Gecko) draw.io/22.1.18 Chrome/120.0.6099.199 Electron/28.1.2 Safari/537.36" etag="eHSQ0oOAazUgofxpBFKW" version="22.1.18" type="device">
  <diagram name="第 1 页" id="9E8fQGYFtgSwDAXrcSRu">
    <mxGraphModel dx="1221" dy="717" grid="1" gridSize="10" guides="1" tooltips="1" connect="1" arrows="1" fold="1" page="1" pageScale="1" pageWidth="20000" pageHeight="20000" math="0" shadow="0">
      <root>
        <mxCell id="0" />
        <mxCell id="1" parent="0" />
        <mxCell id="lxV_ofvJPu97JipaxkNO-1" value="Client1" style="rounded=0;whiteSpace=wrap;html=1;hachureGap=4;fontFamily=Architects Daughter;fontSource=https%3A%2F%2Ffonts.googleapis.com%2Fcss%3Ffamily%3DArchitects%2BDaughter;fontSize=20;" vertex="1" parent="1">
          <mxGeometry x="200" y="50" width="190" height="90" as="geometry" />
        </mxCell>
        <mxCell id="lxV_ofvJPu97JipaxkNO-2" value="Client2" style="rounded=0;whiteSpace=wrap;html=1;hachureGap=4;fontFamily=Architects Daughter;fontSource=https%3A%2F%2Ffonts.googleapis.com%2Fcss%3Ffamily%3DArchitects%2BDaughter;fontSize=20;" vertex="1" parent="1">
          <mxGeometry x="880" y="50" width="210" height="90" as="geometry" />
        </mxCell>
        <mxCell id="lxV_ofvJPu97JipaxkNO-3" value="ChatServer1" style="rounded=0;whiteSpace=wrap;html=1;hachureGap=4;fontFamily=Architects Daughter;fontSource=https%3A%2F%2Ffonts.googleapis.com%2Fcss%3Ffamily%3DArchitects%2BDaughter;fontSize=20;" vertex="1" parent="1">
          <mxGeometry x="230" y="360" width="300" height="170" as="geometry" />
        </mxCell>
        <mxCell id="lxV_ofvJPu97JipaxkNO-4" value="ChatServer2" style="rounded=0;whiteSpace=wrap;html=1;hachureGap=4;fontFamily=Architects Daughter;fontSource=https%3A%2F%2Ffonts.googleapis.com%2Fcss%3Ffamily%3DArchitects%2BDaughter;fontSize=20;" vertex="1" parent="1">
          <mxGeometry x="790" y="360" width="300" height="170" as="geometry" />
        </mxCell>
        <mxCell id="lxV_ofvJPu97JipaxkNO-6" value="" style="endArrow=classic;html=1;rounded=0;sketch=1;hachureGap=4;jiggle=2;curveFitting=1;fontFamily=Architects Daughter;fontSource=https%3A%2F%2Ffonts.googleapis.com%2Fcss%3Ffamily%3DArchitects%2BDaughter;fontSize=16;exitX=0.207;exitY=1.089;exitDx=0;exitDy=0;exitPerimeter=0;entryX=0;entryY=0;entryDx=0;entryDy=0;" edge="1" parent="1" source="lxV_ofvJPu97JipaxkNO-1" target="lxV_ofvJPu97JipaxkNO-3">
          <mxGeometry width="50" height="50" relative="1" as="geometry">
            <mxPoint x="620" y="380" as="sourcePoint" />
            <mxPoint x="670" y="330" as="targetPoint" />
            <Array as="points">
              <mxPoint x="200" y="220" />
            </Array>
          </mxGeometry>
        </mxCell>
        <mxCell id="lxV_ofvJPu97JipaxkNO-12" value="&lt;font style=&quot;font-size: 12px;&quot;&gt;MSG_CHAT_LOGIN&lt;/font&gt;" style="edgeLabel;html=1;align=center;verticalAlign=middle;resizable=0;points=[];fontSize=20;fontFamily=Architects Daughter;" vertex="1" connectable="0" parent="lxV_ofvJPu97JipaxkNO-6">
          <mxGeometry x="-0.0709" y="-5" relative="1" as="geometry">
            <mxPoint x="-20" as="offset" />
          </mxGeometry>
        </mxCell>
        <mxCell id="lxV_ofvJPu97JipaxkNO-11" value="" style="endArrow=classic;html=1;rounded=0;hachureGap=4;fontFamily=Architects Daughter;fontSource=https%3A%2F%2Ffonts.googleapis.com%2Fcss%3Ffamily%3DArchitects%2BDaughter;fontSize=16;exitX=0.533;exitY=-0.059;exitDx=0;exitDy=0;exitPerimeter=0;entryX=1;entryY=1;entryDx=0;entryDy=0;" edge="1" parent="1" source="lxV_ofvJPu97JipaxkNO-3" target="lxV_ofvJPu97JipaxkNO-1">
          <mxGeometry width="50" height="50" relative="1" as="geometry">
            <mxPoint x="360" y="350" as="sourcePoint" />
            <mxPoint x="320" y="170" as="targetPoint" />
            <Array as="points">
              <mxPoint x="400" y="320" />
              <mxPoint x="420" y="250" />
            </Array>
          </mxGeometry>
        </mxCell>
        <mxCell id="lxV_ofvJPu97JipaxkNO-13" value="&lt;font style=&quot;font-size: 12px;&quot;&gt;MSG_CHAT_LOGIN_RSP&lt;/font&gt;" style="edgeLabel;html=1;align=center;verticalAlign=middle;resizable=0;points=[];fontSize=20;fontFamily=Architects Daughter;" vertex="1" connectable="0" parent="lxV_ofvJPu97JipaxkNO-11">
          <mxGeometry x="0.1922" y="4" relative="1" as="geometry">
            <mxPoint x="21" y="4" as="offset" />
          </mxGeometry>
        </mxCell>
        <mxCell id="lxV_ofvJPu97JipaxkNO-15" value="" style="endArrow=classic;html=1;rounded=0;hachureGap=4;fontFamily=Architects Daughter;fontSource=https%3A%2F%2Ffonts.googleapis.com%2Fcss%3Ffamily%3DArchitects%2BDaughter;fontSize=16;exitX=0.416;exitY=1.104;exitDx=0;exitDy=0;exitPerimeter=0;entryX=0.168;entryY=-0.031;entryDx=0;entryDy=0;entryPerimeter=0;" edge="1" parent="1" source="lxV_ofvJPu97JipaxkNO-1" target="lxV_ofvJPu97JipaxkNO-3">
          <mxGeometry width="50" height="50" relative="1" as="geometry">
            <mxPoint x="620" y="380" as="sourcePoint" />
            <mxPoint x="670" y="330" as="targetPoint" />
          </mxGeometry>
        </mxCell>
        <mxCell id="lxV_ofvJPu97JipaxkNO-16" value="&lt;font style=&quot;font-size: 12px;&quot;&gt;ID_ADD_FRIEND_REQ&lt;/font&gt;" style="edgeLabel;html=1;align=center;verticalAlign=middle;resizable=0;points=[];fontSize=20;fontFamily=Architects Daughter;" vertex="1" connectable="0" parent="lxV_ofvJPu97JipaxkNO-15">
          <mxGeometry x="-0.1106" y="3" relative="1" as="geometry">
            <mxPoint x="-3" y="-30" as="offset" />
          </mxGeometry>
        </mxCell>
        <mxCell id="lxV_ofvJPu97JipaxkNO-17" value="" style="endArrow=classic;html=1;rounded=0;sketch=1;hachureGap=4;jiggle=2;curveFitting=1;fontFamily=Architects Daughter;fontSource=https%3A%2F%2Ffonts.googleapis.com%2Fcss%3Ffamily%3DArchitects%2BDaughter;fontSize=16;exitX=0.372;exitY=-0.039;exitDx=0;exitDy=0;exitPerimeter=0;entryX=0.75;entryY=1;entryDx=0;entryDy=0;" edge="1" parent="1" source="lxV_ofvJPu97JipaxkNO-3" target="lxV_ofvJPu97JipaxkNO-1">
          <mxGeometry width="50" height="50" relative="1" as="geometry">
            <mxPoint x="620" y="280" as="sourcePoint" />
            <mxPoint x="670" y="230" as="targetPoint" />
          </mxGeometry>
        </mxCell>
        <mxCell id="lxV_ofvJPu97JipaxkNO-18" value="&lt;font style=&quot;font-size: 12px;&quot;&gt;ID_ADD_FRIEND_RSP&lt;/font&gt;" style="edgeLabel;html=1;align=center;verticalAlign=middle;resizable=0;points=[];fontSize=20;fontFamily=Architects Daughter;" vertex="1" connectable="0" parent="lxV_ofvJPu97JipaxkNO-17">
          <mxGeometry x="-0.3185" y="-1" relative="1" as="geometry">
            <mxPoint as="offset" />
          </mxGeometry>
        </mxCell>
        <mxCell id="lxV_ofvJPu97JipaxkNO-19" value="" style="endArrow=classic;html=1;rounded=0;hachureGap=4;fontFamily=Architects Daughter;fontSource=https%3A%2F%2Ffonts.googleapis.com%2Fcss%3Ffamily%3DArchitects%2BDaughter;fontSize=16;exitX=1.008;exitY=0.145;exitDx=0;exitDy=0;exitPerimeter=0;entryX=-0.01;entryY=0.161;entryDx=0;entryDy=0;entryPerimeter=0;" edge="1" parent="1" source="lxV_ofvJPu97JipaxkNO-3" target="lxV_ofvJPu97JipaxkNO-4">
          <mxGeometry width="50" height="50" relative="1" as="geometry">
            <mxPoint x="620" y="280" as="sourcePoint" />
            <mxPoint x="670" y="230" as="targetPoint" />
          </mxGeometry>
        </mxCell>
        <mxCell id="lxV_ofvJPu97JipaxkNO-20" value="&lt;font face=&quot;Georgia&quot; style=&quot;font-size: 12px;&quot;&gt;NotifyAddFriend&lt;/font&gt;" style="text;html=1;align=center;verticalAlign=middle;resizable=0;points=[];autosize=1;strokeColor=none;fillColor=none;fontSize=20;fontFamily=Architects Daughter;" vertex="1" parent="1">
          <mxGeometry x="595" y="343" width="110" height="40" as="geometry" />
        </mxCell>
        <mxCell id="lxV_ofvJPu97JipaxkNO-21" value="rpc" style="text;html=1;align=center;verticalAlign=middle;resizable=0;points=[];autosize=1;strokeColor=none;fillColor=none;fontSize=20;fontFamily=Architects Daughter;" vertex="1" parent="1">
          <mxGeometry x="630" y="310" width="60" height="40" as="geometry" />
        </mxCell>
        <mxCell id="lxV_ofvJPu97JipaxkNO-22" value="" style="endArrow=classic;html=1;rounded=0;sketch=1;hachureGap=4;jiggle=2;curveFitting=1;fontFamily=Architects Daughter;fontSource=https%3A%2F%2Ffonts.googleapis.com%2Fcss%3Ffamily%3DArchitects%2BDaughter;fontSize=16;exitX=0.308;exitY=-0.02;exitDx=0;exitDy=0;exitPerimeter=0;entryX=-0.008;entryY=1.089;entryDx=0;entryDy=0;entryPerimeter=0;" edge="1" parent="1" source="lxV_ofvJPu97JipaxkNO-4" target="lxV_ofvJPu97JipaxkNO-2">
          <mxGeometry width="50" height="50" relative="1" as="geometry">
            <mxPoint x="860" y="340" as="sourcePoint" />
            <mxPoint x="985" y="200" as="targetPoint" />
            <Array as="points">
              <mxPoint x="870" y="270" />
            </Array>
          </mxGeometry>
        </mxCell>
        <mxCell id="lxV_ofvJPu97JipaxkNO-23" value="&lt;font style=&quot;font-size: 12px;&quot;&gt;ID_NOTIFY_ADD_FRIEND_REQ&lt;/font&gt;" style="edgeLabel;html=1;align=center;verticalAlign=middle;resizable=0;points=[];fontSize=20;fontFamily=Architects Daughter;" vertex="1" connectable="0" parent="lxV_ofvJPu97JipaxkNO-22">
          <mxGeometry x="0.016" y="6" relative="1" as="geometry">
            <mxPoint x="-25" y="1" as="offset" />
          </mxGeometry>
        </mxCell>
        <mxCell id="lxV_ofvJPu97JipaxkNO-24" value="" style="endArrow=classic;html=1;rounded=0;hachureGap=4;fontFamily=Architects Daughter;fontSource=https%3A%2F%2Ffonts.googleapis.com%2Fcss%3Ffamily%3DArchitects%2BDaughter;fontSize=16;exitX=0.868;exitY=1.022;exitDx=0;exitDy=0;exitPerimeter=0;" edge="1" parent="1" source="lxV_ofvJPu97JipaxkNO-2">
          <mxGeometry width="50" height="50" relative="1" as="geometry">
            <mxPoint x="620" y="380" as="sourcePoint" />
            <mxPoint x="1060" y="350" as="targetPoint" />
            <Array as="points">
              <mxPoint x="1080" y="260" />
            </Array>
          </mxGeometry>
        </mxCell>
        <mxCell id="lxV_ofvJPu97JipaxkNO-27" value="&lt;font style=&quot;font-size: 12px;&quot;&gt;ID_AUTH_FRIEND_REQ&lt;/font&gt;" style="edgeLabel;html=1;align=center;verticalAlign=middle;resizable=0;points=[];fontSize=20;fontFamily=Architects Daughter;" vertex="1" connectable="0" parent="lxV_ofvJPu97JipaxkNO-24">
          <mxGeometry x="-0.08" relative="1" as="geometry">
            <mxPoint x="9" as="offset" />
          </mxGeometry>
        </mxCell>
        <mxCell id="lxV_ofvJPu97JipaxkNO-25" value="&lt;font style=&quot;font-size: 10px;&quot;&gt;当用户点击验证界面确定按钮的时候&lt;/font&gt;" style="text;html=1;align=center;verticalAlign=middle;resizable=0;points=[];autosize=1;strokeColor=none;fillColor=none;fontSize=20;fontFamily=Architects Daughter;" vertex="1" parent="1">
          <mxGeometry x="1060" y="163" width="180" height="40" as="geometry" />
        </mxCell>
        <mxCell id="lxV_ofvJPu97JipaxkNO-26" value="&lt;font style=&quot;font-size: 10px;&quot;&gt;创建 NewApply&lt;/font&gt;" style="text;html=1;align=center;verticalAlign=middle;resizable=0;points=[];autosize=1;strokeColor=none;fillColor=none;fontSize=20;fontFamily=Architects Daughter;" vertex="1" parent="1">
          <mxGeometry x="785" y="140" width="90" height="40" as="geometry" />
        </mxCell>
        <mxCell id="lxV_ofvJPu97JipaxkNO-28" value="" style="endArrow=classic;html=1;rounded=0;hachureGap=4;fontFamily=Architects Daughter;fontSource=https%3A%2F%2Ffonts.googleapis.com%2Fcss%3Ffamily%3DArchitects%2BDaughter;fontSize=16;exitX=0.7;exitY=0;exitDx=0;exitDy=0;exitPerimeter=0;" edge="1" parent="1" source="lxV_ofvJPu97JipaxkNO-4">
          <mxGeometry width="50" height="50" relative="1" as="geometry">
            <mxPoint x="630" y="380" as="sourcePoint" />
            <mxPoint x="1000" y="150" as="targetPoint" />
            <Array as="points">
              <mxPoint x="990" y="250" />
            </Array>
          </mxGeometry>
        </mxCell>
        <mxCell id="lxV_ofvJPu97JipaxkNO-29" value="&lt;font style=&quot;font-size: 12px;&quot;&gt;ID_AUTH_FRIEND_RSP&lt;/font&gt;" style="edgeLabel;html=1;align=center;verticalAlign=middle;resizable=0;points=[];fontSize=20;fontFamily=Architects Daughter;" vertex="1" connectable="0" parent="lxV_ofvJPu97JipaxkNO-28">
          <mxGeometry x="0.3352" y="1" relative="1" as="geometry">
            <mxPoint x="-2" y="-10" as="offset" />
          </mxGeometry>
        </mxCell>
        <mxCell id="lxV_ofvJPu97JipaxkNO-30" value="" style="endArrow=classic;html=1;rounded=0;hachureGap=4;fontFamily=Architects Daughter;fontSource=https%3A%2F%2Ffonts.googleapis.com%2Fcss%3Ffamily%3DArchitects%2BDaughter;fontSize=16;exitX=0;exitY=0.75;exitDx=0;exitDy=0;entryX=1.028;entryY=0.765;entryDx=0;entryDy=0;entryPerimeter=0;" edge="1" parent="1" source="lxV_ofvJPu97JipaxkNO-4" target="lxV_ofvJPu97JipaxkNO-3">
          <mxGeometry width="50" height="50" relative="1" as="geometry">
            <mxPoint x="630" y="380" as="sourcePoint" />
            <mxPoint x="680" y="330" as="targetPoint" />
          </mxGeometry>
        </mxCell>
        <mxCell id="lxV_ofvJPu97JipaxkNO-32" value="&lt;font style=&quot;font-size: 12px;&quot;&gt;如果两个客户端在同一个服务器，则直接通过内存发送通知对方&lt;/font&gt;" style="text;html=1;align=center;verticalAlign=middle;resizable=0;points=[];autosize=1;strokeColor=none;fillColor=none;fontSize=20;fontFamily=Architects Daughter;" vertex="1" parent="1">
          <mxGeometry x="490" y="550" width="360" height="40" as="geometry" />
        </mxCell>
        <mxCell id="lxV_ofvJPu97JipaxkNO-34" value="&lt;font style=&quot;font-size: 12px;&quot;&gt;否则调用 Rpc通知对端服务器&lt;/font&gt;" style="text;html=1;align=center;verticalAlign=middle;resizable=0;points=[];autosize=1;strokeColor=none;fillColor=none;fontSize=20;fontFamily=Architects Daughter;" vertex="1" parent="1">
          <mxGeometry x="500" y="580" width="180" height="40" as="geometry" />
        </mxCell>
        <mxCell id="lxV_ofvJPu97JipaxkNO-35" value="&lt;span style=&quot;color: rgb(240, 240, 240); font-family: &amp;quot;Architects Daughter&amp;quot;; font-size: 12px; font-style: normal; font-variant-ligatures: normal; font-variant-caps: normal; font-weight: 400; letter-spacing: normal; orphans: 2; text-align: left; text-indent: 0px; text-transform: none; widows: 2; word-spacing: 0px; -webkit-text-stroke-width: 0px; background-color: rgb(27, 29, 30); text-decoration-thickness: initial; text-decoration-style: initial; text-decoration-color: initial; float: none; display: inline !important;&quot;&gt;NotifyAuthFriend&lt;/span&gt;" style="text;whiteSpace=wrap;html=1;fontSize=20;fontFamily=Architects Daughter;" vertex="1" parent="1">
          <mxGeometry x="605" y="490" width="130" height="50" as="geometry" />
        </mxCell>
        <mxCell id="lxV_ofvJPu97JipaxkNO-36" value="ID_NOTIFY_AUTH_FRIEND_REQ" style="text;whiteSpace=wrap;fontSize=12;fontFamily=Architects Daughter;" vertex="1" parent="1">
          <mxGeometry x="510" y="150" width="320" height="60" as="geometry" />
        </mxCell>
        <mxCell id="lxV_ofvJPu97JipaxkNO-37" value="" style="endArrow=classic;html=1;rounded=0;sketch=1;hachureGap=4;jiggle=2;curveFitting=1;fontFamily=Architects Daughter;fontSource=https%3A%2F%2Ffonts.googleapis.com%2Fcss%3Ffamily%3DArchitects%2BDaughter;fontSize=16;entryX=1;entryY=0.5;entryDx=0;entryDy=0;" edge="1" parent="1" target="lxV_ofvJPu97JipaxkNO-1">
          <mxGeometry width="50" height="50" relative="1" as="geometry">
            <mxPoint x="449" y="360" as="sourcePoint" />
            <mxPoint x="430" y="102.36" as="targetPoint" />
            <Array as="points">
              <mxPoint x="530" y="190" />
            </Array>
          </mxGeometry>
        </mxCell>
      </root>
    </mxGraphModel>
  </diagram>
</mxfile>
